<svg width="128" height="128" viewBox="0 0 128 128" fill="none" xmlns="http://www.w3.org/2000/svg">
<path fill-rule="evenodd" clip-rule="evenodd" d="M71.0557 26.0002C79.5707 26.0002 87.4484 30.512 91.7568 37.8566L111.701 71.8566C113.582 75.0633 114.634 78.5273 114.922 82.0002L115 82.0002L115 83.6252C115.123 91.9843 110.869 100.169 103.144 104.701C91.7107 111.408 77.0055 107.576 70.2988 96.1437L57.3086 74.0002L28 74.0001L28 26.0001L71.0557 26.0002Z" fill="#0C88D5"/>
<path d="M26 23.9998L71.0567 23.9998C79.572 23.9998 87.4504 28.5121 91.7588 35.8572L111.701 69.8572C118.407 81.2903 114.576 95.9947 103.143 102.701C91.7094 109.407 77.0051 105.575 70.2988 94.1423L57.3106 71.9998L26 71.9998L26 23.9998Z" fill="#A1EFF4"/>
<g opacity="0.4">
<mask id="mask0_6043_595" style="mask-type:alpha" maskUnits="userSpaceOnUse" x="81" y="88" width="49" height="48">
<circle cx="106" cy="112" r="24" fill="#08D8E7"/>
</mask>
<g mask="url(#mask0_6043_595)">
<path d="M25.9999 23.9997L71.0566 23.9997C79.572 23.9997 87.4504 28.5121 91.7587 35.8571L111.701 69.8571C118.407 81.2903 114.576 95.9946 103.143 102.701C91.7094 109.407 77.005 105.575 70.2988 94.1423L57.3105 71.9997L25.9999 71.9997L25.9999 23.9997Z" fill="#08D8E7"/>
</g>
</g>
<path d="M22 71.9997C19.7909 71.9997 18 70.2088 18 67.9997L18 27.9997C18 25.7906 19.7909 23.9997 22 23.9997L30 23.9997L30 71.9997L22 71.9997Z" fill="#08D8E7"/>
<g opacity="0.6">
<mask id="mask1_6043_595" style="mask-type:alpha" maskUnits="userSpaceOnUse" x="18" y="23" width="11" height="35">
<path d="M27.5 25.9996L18 25.9996L18 23.9996L29 23.9996L29 24.4996C29 25.4996 28.5 25.9996 27.5 25.9996Z" fill="#FFCC26"/>
<path d="M29 31.4996C29 30.6712 28.3284 29.9996 27.5 29.9996L18 29.9996L18 33.9996L27.5 33.9996C28.3284 33.9996 29 33.3281 29 32.4996L29 31.4996Z" fill="#FFCC26"/>
<path d="M29 39.4996C29 38.6712 28.3284 37.9996 27.5 37.9996L18 37.9996L18 41.9996L27.5 41.9996C28.3284 41.9996 29 41.3281 29 40.4996L29 39.4996Z" fill="#FFCC26"/>
<path d="M29 47.4996C29 46.6712 28.3284 45.9996 27.5 45.9996L18 45.9996L18 49.9996L27.5 49.9996C28.3284 49.9996 29 49.3281 29 48.4996L29 47.4996Z" fill="#FFCC26"/>
<path d="M29 55.4996C29 54.6712 28.3284 53.9996 27.5 53.9996L18 53.9996L18 57.9996L27.5 57.9996C28.3284 57.9996 29 57.3281 29 56.4996L29 55.4996Z" fill="#FFCC26"/>
</mask>
<g mask="url(#mask1_6043_595)">
<path d="M22 71.9996C19.7909 71.9996 18 70.2088 18 67.9996L18 27.9996C18 25.7905 19.7909 23.9996 22 23.9996L33 23.9996L33 71.9996L22 71.9996Z" fill="#AEF3F8"/>
</g>
</g>
<circle opacity="0.5" cx="91" cy="82" r="22" transform="rotate(180 91 82)" stroke="url(#paint0_linear_6043_595)" stroke-width="2"/>
<path d="M88 61.1064C87.9998 69.7007 83.4259 77.6422 76.001 81.9395L40.002 102.773C28.5236 109.416 13.8469 105.473 7.21973 93.9678C5.04525 90.1924 4.00719 86.0714 4 82.0039V80H4.08203C4.70228 72.3948 8.91146 65.2107 16.0029 61.1064L40.002 47.2168V16H88V61.1064Z" fill="#FF5100"/>
<path d="M88 14L88 59.106C88 67.7004 83.4257 75.6418 76.0005 79.9391L40.0021 100.773C28.5236 107.416 13.8464 103.473 7.21932 91.9673C0.592279 80.4613 4.52464 65.749 16.0031 59.106L38.0057 46.3723C39.2413 45.6572 40.0021 44.3378 40.0021 42.9103L40.0021 14L88 14Z" fill="#FFAE4B"/>
<path d="M88 14L88 59.106C88 67.7004 83.4257 75.6418 76.0005 79.9391L40.0021 100.773C28.5236 107.416 13.8464 103.473 7.21932 91.9673C0.592279 80.4613 4.52464 65.749 16.0031 59.106L38.0057 46.3723C39.2413 45.6572 40.0021 44.3378 40.0021 42.9103L40.0021 14L88 14Z" fill="#FFAE4B"/>
<path d="M44 4C41.7909 4 40 5.79086 40 8V19H88V8C88 5.79086 86.2091 4 84 4H44Z" fill="#FF7800"/>
<g opacity="0.5">
<mask id="mask2_6043_595" style="mask-type:alpha" maskUnits="userSpaceOnUse" x="40" y="4" width="48" height="12">
<path d="M87.1056 15.5528C86.428 15.214 86 14.5215 86 13.7639V4L88 4V16L87.1056 15.5528Z" fill="#FFD917"/>
<path d="M80.5 15C81.3284 15 82 14.3284 82 13.5V4L78 4V13.5C78 14.3284 78.6716 15 79.5 15H80.5Z" fill="#FFD917"/>
<path d="M72.5 15C73.3284 15 74 14.3284 74 13.5V4L70 4V13.5C70 14.3284 70.6716 15 71.5 15H72.5Z" fill="#FFD917"/>
<path d="M64.5 15C65.3284 15 66 14.3284 66 13.5V4L62 4V13.5C62 14.3284 62.6716 15 63.5 15H64.5Z" fill="#FFD917"/>
<path d="M56.5 15C57.3284 15 58 14.3284 58 13.5L58 4L54 4L54 13.5C54 14.3284 54.6716 15 55.5 15H56.5Z" fill="#FFD917"/>
<path d="M48.5 15C49.3284 15 50 14.3284 50 13.5L50 4L46 4L46 13.5C46 14.3284 46.6716 15 47.5 15H48.5Z" fill="#FFD917"/>
<path d="M40.8944 15.5528C41.572 15.214 42 14.5215 42 13.7639L42 4L40 4L40 16L40.8944 15.5528Z" fill="#FFD917"/>
</mask>
<g mask="url(#mask2_6043_595)">
<path d="M40 8C40 5.79086 41.7909 4 44 4L84 4C86.2091 4 88 5.79086 88 8L88 19L40 19L40 8Z" fill="#FFD917"/>
</g>
</g>
<path d="M40 19C40 17.3431 41.3431 16 43 16H85C86.6569 16 88 17.3431 88 19V30H40V19Z" fill="#FFC331"/>
<path d="M40 30C40 28.3431 41.3431 27 43 27H85C86.6569 27 88 28.3431 88 30V41H40V30Z" fill="#FFAE4B"/>
<path d="M40 39C40 37.3431 41.3431 36 43 36H85C86.6569 36 88 37.3431 88 39V58H40V39Z" fill="#FFC331"/>
<mask id="mask3_6043_595" style="mask-type:alpha" maskUnits="userSpaceOnUse" x="4" y="14" width="84" height="90">
<path d="M88 14L88 59.106C88 67.7004 83.4257 75.6418 76.0005 79.9391L40.0021 100.773C28.5236 107.416 13.8464 103.473 7.21932 91.9673C0.592279 80.4613 4.52464 65.749 16.0031 59.106L38.0057 46.3723C39.2413 45.6572 40.0021 44.3378 40.0021 42.9103L40.0021 14L88 14Z" fill="#FFAE4B"/>
</mask>
<g mask="url(#mask3_6043_595)">
<circle opacity="0.7" cy="100" r="29" fill="#FFEA00" stroke="#FFAE4B" stroke-width="10"/>
<circle cy="100" r="39" stroke="#FFC331" stroke-width="10"/>
<circle cy="100" r="58" stroke="#FFC331" stroke-width="10"/>
</g>
<path d="M88 41L88 59.106C88 67.7004 83.4257 75.6418 76.0005 79.9391L32 49.848L38.0057 46.3723C39.2412 45.6572 40.0021 44.3378 40.0021 42.9103L40.0021 41L88 41Z" fill="#FFC331"/>
<circle opacity="0.5" cx="23" cy="23" r="22" transform="matrix(1 0 0 -1 5 103)" stroke="url(#paint1_linear_6043_595)" stroke-width="2"/>
<path opacity="0.2" d="M44 46C42.8647 46 40 46 40 46V8C40 5.79086 41.7909 4 44 4V46Z" fill="url(#paint2_linear_6043_595)"/>
<path opacity="0.2" d="M84 46C85.1353 46 88 46 88 46V8C88 5.79086 86.2091 4 84 4V46Z" fill="url(#paint3_linear_6043_595)"/>
<path d="M88 30.2195C99.479 23.5921 114.157 27.5257 120.784 39.0046C122.434 41.8626 123.43 44.9188 123.817 47.9998H124V50.6824C124.105 59.0817 119.792 67.29 112 71.7888L90 84.491C88.7625 85.2055 88 86.5258 88 87.9548V90.7888H40V71.7888C40 63.2145 44.5745 55.2918 52 51.0046L88 30.2195Z" fill="url(#paint4_linear_6043_595)"/>
<path d="M40 112.789L40 68.7886C40 60.2143 44.5745 52.2916 52 48.0044L88 27.2192C99.4791 20.5919 114.157 24.5254 120.784 36.0044C127.412 47.4834 123.479 62.1612 112 68.7886L90 81.4903C88.7624 82.2048 88 83.5254 88 84.9544L88 112.789L40 112.789Z" fill="#8FF0A4"/>
<path d="M88.0001 121L40.0001 121L40.0001 109C40.0001 107.343 41.3432 106 43.0001 106L85.0001 106C86.6569 106 88.0001 107.343 88.0001 109L88.0001 121Z" fill="#33D17A"/>
<path d="M86 121L86 108.679C86 108.367 86.3284 108.164 86.6076 108.304C87.4609 108.73 88 109.603 88 110.557L88 121L86 121Z" fill="#61E18F"/>
<path d="M78 118L78 108.5C78 107.672 78.6716 107 79.5 107L80.5 107C81.3284 107 82 107.672 82 108.5L82 118L78 118Z" fill="#61E18F"/>
<path d="M70 118L70 108.5C70 107.672 70.6716 107 71.5 107L72.5 107C73.3284 107 74 107.672 74 108.5L74 118L70 118Z" fill="#61E18F"/>
<path d="M62 118L62 108.5C62 107.672 62.6716 107 63.5 107L64.5 107C65.3284 107 66 107.672 66 108.5L66 118L62 118Z" fill="#61E18F"/>
<path d="M54 118L54 108.5C54 107.672 54.6716 107 55.5 107L56.5 107C57.3284 107 58 107.672 58 108.5L58 118L54 118Z" fill="#61E18F"/>
<path d="M46 118L46 108.5C46 107.672 46.6716 107 47.5 107L48.5 107C49.3284 107 50 107.672 50 108.5L50 118L46 118Z" fill="#61E18F"/>
<path d="M40 121L40 110.557C40 109.603 40.5391 108.73 41.3924 108.304C41.6716 108.164 42 108.367 42 108.679L42 121L40 121Z" fill="#61E18F"/>
<path d="M88 121C88 119.343 86.6569 118 85 118L43 118C41.3431 118 40 119.343 40 121C40 122.657 41.3431 124 43 124L85 124C86.6569 124 88 122.657 88 121Z" fill="#019A46"/>
<rect x="42" y="120" width="44" height="2" rx="1" fill="#066B34"/>
<path d="M46 118H50V119C50 119.552 49.5523 120 49 120H47C46.4477 120 46 119.552 46 119V118Z" fill="#20B560"/>
<path d="M46 123C46 122.448 46.4477 122 47 122H49C49.5523 122 50 122.448 50 123V124H46V123Z" fill="#20B560"/>
<path d="M54 118H58V119C58 119.552 57.5523 120 57 120H55C54.4477 120 54 119.552 54 119V118Z" fill="#20B560"/>
<path d="M54 123C54 122.448 54.4477 122 55 122H57C57.5523 122 58 122.448 58 123V124H54V123Z" fill="#20B560"/>
<path d="M62 118H66V119C66 119.552 65.5523 120 65 120H63C62.4477 120 62 119.552 62 119V118Z" fill="#20B560"/>
<path d="M62 123C62 122.448 62.4477 122 63 122H65C65.5523 122 66 122.448 66 123V124H62V123Z" fill="#20B560"/>
<path d="M78 118H82V119C82 119.552 81.5523 120 81 120H79C78.4477 120 78 119.552 78 119V118Z" fill="#20B560"/>
<path d="M78 123C78 122.448 78.4477 122 79 122H81C81.5523 122 82 122.448 82 123V124H78V123Z" fill="#20B560"/>
<path d="M70 118H74V119C74 119.552 73.5523 120 73 120H71C70.4477 120 70 119.552 70 119V118Z" fill="#20B560"/>
<path d="M70 123C70 122.448 70.4477 122 71 122H73C73.5523 122 74 122.448 74 123V124H70V123Z" fill="#20B560"/>
<path d="M42 123.825C40.8355 123.413 40 122.306 40 121C40 119.694 40.8353 118.586 42 118.174V123.825Z" fill="#20B560"/>
<path d="M86 123.825C87.1645 123.413 88 122.306 88 121C88 119.694 87.1647 118.586 86 118.174V123.825Z" fill="#20B560"/>
<g opacity="0.5">
<mask id="mask4_6043_595" style="mask-type:alpha" maskUnits="userSpaceOnUse" x="40" y="24" width="85" height="89">
<path d="M40 112.789L40 68.7886C40 60.2143 44.5745 52.2916 52 48.0044L88 27.2192C99.4791 20.5919 114.157 24.5254 120.784 36.0044C127.412 47.4834 123.479 62.1612 112 68.7886L88 82.645L88 112.789L40 112.789Z" fill="#8FF0A4"/>
</mask>
<g mask="url(#mask4_6043_595)">
<circle opacity="0.7" cx="128" cy="29" r="24" fill="#33D17A"/>
</g>
</g>
<path opacity="0.2" d="M44 118H43C41.3431 118 40 119.343 40 121V68C40 66.8954 40.8954 66 42 66C43.1046 66 44 66.8954 44 68V118Z" fill="url(#paint5_linear_6043_595)"/>
<path opacity="0.2" d="M84 118H85C86.6569 118 88 119.343 88 121V87C88 85.8954 87.1046 85 86 85C84.8954 85 84 85.8954 84 87V118Z" fill="url(#paint6_linear_6043_595)"/>
<circle opacity="0.5" cx="100" cy="48" r="22" transform="rotate(180 100 48)" stroke="url(#paint7_linear_6043_595)" stroke-width="2"/>
<path d="M40 68C40 66.8954 40.8954 66 42 66C43.1046 66 44 66.8954 44 68V74H40V68Z" fill="url(#paint8_linear_6043_595)"/>
<path d="M84 87C84 85.8954 84.8954 85 86 85C87.1046 85 88 85.8954 88 87V93H84V87Z" fill="url(#paint9_linear_6043_595)"/>
<rect x="40" y="38" width="4" height="8" fill="url(#paint10_linear_6043_595)"/>
<defs>
<linearGradient id="paint0_linear_6043_595" x1="49.0889" y1="82" x2="84.3556" y2="82" gradientUnits="userSpaceOnUse">
<stop stop-color="white"/>
<stop offset="1" stop-color="white" stop-opacity="0"/>
</linearGradient>
<linearGradient id="paint1_linear_6043_595" x1="-18.9111" y1="23" x2="16.3556" y2="23" gradientUnits="userSpaceOnUse">
<stop stop-color="white"/>
<stop offset="1" stop-color="white" stop-opacity="0"/>
</linearGradient>
<linearGradient id="paint2_linear_6043_595" x1="40" y1="10.5" x2="44" y2="10.5" gradientUnits="userSpaceOnUse">
<stop stop-color="white" stop-opacity="0"/>
<stop offset="0.329782" stop-color="white"/>
<stop offset="0.658546" stop-color="white"/>
<stop offset="1" stop-color="white" stop-opacity="0"/>
</linearGradient>
<linearGradient id="paint3_linear_6043_595" x1="88" y1="10.5" x2="84" y2="10.5" gradientUnits="userSpaceOnUse">
<stop stop-color="white" stop-opacity="0"/>
<stop offset="0.329782" stop-color="white"/>
<stop offset="0.658546" stop-color="white"/>
<stop offset="1" stop-color="white" stop-opacity="0"/>
</linearGradient>
<linearGradient id="paint4_linear_6043_595" x1="94" y1="77.2902" x2="62" y2="77.2902" gradientUnits="userSpaceOnUse">
<stop stop-color="#21D481"/>
<stop offset="1" stop-color="#116E43"/>
</linearGradient>
<linearGradient id="paint5_linear_6043_595" x1="40" y1="72.5" x2="44" y2="72.5" gradientUnits="userSpaceOnUse">
<stop stop-color="white" stop-opacity="0"/>
<stop offset="0.329782" stop-color="white"/>
<stop offset="0.658546" stop-color="white"/>
<stop offset="1" stop-color="white" stop-opacity="0"/>
</linearGradient>
<linearGradient id="paint6_linear_6043_595" x1="88" y1="72.5" x2="84" y2="72.5" gradientUnits="userSpaceOnUse">
<stop stop-color="white" stop-opacity="0"/>
<stop offset="0.329782" stop-color="white"/>
<stop offset="0.658546" stop-color="white"/>
<stop offset="1" stop-color="white" stop-opacity="0"/>
</linearGradient>
<linearGradient id="paint7_linear_6043_595" x1="58.0889" y1="48" x2="93.3556" y2="48" gradientUnits="userSpaceOnUse">
<stop stop-color="white"/>
<stop offset="1" stop-color="white" stop-opacity="0"/>
</linearGradient>
<linearGradient id="paint8_linear_6043_595" x1="42" y1="66" x2="42" y2="74" gradientUnits="userSpaceOnUse">
<stop stop-color="#8FF0A4"/>
<stop offset="1" stop-color="#8FF0A4" stop-opacity="0"/>
</linearGradient>
<linearGradient id="paint9_linear_6043_595" x1="86" y1="85" x2="86" y2="93" gradientUnits="userSpaceOnUse">
<stop stop-color="#8FF0A4"/>
<stop offset="1" stop-color="#8FF0A4" stop-opacity="0"/>
</linearGradient>
<linearGradient id="paint10_linear_6043_595" x1="42" y1="38" x2="42" y2="46" gradientUnits="userSpaceOnUse">
<stop stop-color="#FFC331" stop-opacity="0"/>
<stop offset="1" stop-color="#FFC331"/>
</linearGradient>
</defs>
</svg>
